<svg width="113" height="113" viewBox="0 0 113 113" fill="none" xmlns="http://www.w3.org/2000/svg">
<path d="M47.3411 57.8503C44.7886 60.7037 42.5364 63.2568 39.984 65.96C43.2872 65.96 46.4402 65.96 49.5933 65.96C50.9446 65.96 52.2959 65.8098 53.4971 65.96C54.6982 66.1102 54.6982 65.6596 54.6982 64.6084C54.6982 55.8979 54.6982 47.3377 54.6982 38.6272C54.6982 33.3709 54.6982 27.9645 54.6982 22.7082C54.6982 21.657 54.5481 21.3566 53.3469 21.3566C39.3834 21.3566 25.4198 21.3566 11.3061 21.3566C10.4052 21.3566 9.95479 21.2064 10.1049 20.1551C10.2551 17.4519 9.95478 14.5984 10.4052 11.745C11.3061 5.73781 16.5612 1.08231 22.567 0.932129C23.0175 0.932129 23.4679 0.932129 23.9183 0.932129C45.8396 0.932129 67.6108 0.932129 89.5321 0.932129C95.9883 0.932129 101.093 4.83673 102.595 10.9941C102.895 12.1955 102.895 13.2469 102.895 14.4483C102.895 20.7559 102.895 26.9133 102.895 33.2208C102.895 34.1219 103.045 34.272 103.946 34.272C105.448 34.1218 106.949 34.272 108.3 34.272C110.552 34.272 112.054 35.7738 112.054 38.0265C112.054 44.1839 112.054 50.1911 112.054 56.3485C112.054 58.6012 110.402 60.103 108.15 60.2532C106.649 60.2532 105.147 60.2532 103.796 60.2532C103.045 60.2532 102.745 60.4033 102.745 61.3044C102.745 71.0661 102.745 80.978 102.745 90.7397C102.745 93.4429 101.994 95.6956 99.4417 96.897C98.8411 97.1974 99.1414 97.6479 99.1414 97.9483C99.1414 101.252 99.1414 104.706 99.1414 108.01C99.1414 110.714 97.6399 112.215 94.9373 112.215C91.484 112.215 88.0306 112.215 84.5772 112.215C82.0247 112.215 80.5233 110.714 80.5233 108.161C80.5233 106.058 80.5233 103.955 80.5233 101.853C80.5233 101.252 80.6735 100.952 81.274 100.952C84.277 100.952 84.277 100.952 84.277 103.805C84.277 105.007 84.277 106.208 84.277 107.56C84.277 108.161 84.4271 108.461 85.0277 108.461C88.1807 108.461 91.3338 108.461 94.4868 108.461C95.2376 108.461 95.3877 108.161 95.3877 107.56C95.3877 104.406 95.3877 101.402 95.3877 98.2487C95.3877 97.3476 95.0874 97.3475 94.3367 97.3475C82.1749 97.3475 69.8629 97.3475 57.7011 97.3475C49.5933 97.3475 41.4854 97.3475 33.3775 97.3475C32.6268 97.3475 32.3265 97.4977 32.3265 98.3988C32.3265 101.553 32.3265 104.857 32.3265 108.01C32.3265 110.714 30.8251 112.215 28.2726 112.215C24.8192 112.215 21.3659 112.215 17.9125 112.215C15.36 112.215 13.8586 110.714 13.8586 108.161C13.8586 104.857 13.8586 101.402 13.8586 98.0984C13.8586 97.4977 13.7084 97.0472 13.1078 96.7469C11.0058 95.6956 10.1049 93.8935 10.1049 91.4906C10.1049 81.4285 10.1049 71.5167 10.1049 61.4546C10.1049 60.5535 9.95478 60.2532 8.90376 60.2532C7.55245 60.4034 6.051 60.2532 4.54954 60.2532C2.29736 60.2532 0.795898 58.6012 0.795898 56.4987C0.795898 50.3413 0.795898 44.3341 0.795898 38.1767C0.795898 35.924 2.44751 34.4222 4.6997 34.272C6.20116 34.272 7.85275 34.272 9.3542 34.272C9.95479 34.272 10.1049 34.1218 10.1049 33.5211C10.1049 30.968 10.1049 28.415 10.1049 25.862C10.1049 25.1111 10.2551 24.9609 11.0058 24.9609C13.8586 24.9609 13.8586 24.9609 13.8586 27.6641C13.8586 39.9789 13.8586 52.2937 13.8586 64.7586C13.8586 65.6597 14.1589 65.8098 15.0597 65.8098C21.3659 65.8098 27.672 65.8098 34.1283 65.8098C34.879 65.8098 35.3294 65.6596 35.7799 65.0589C39.5335 60.8538 43.2871 56.799 46.8906 52.594C47.3411 52.1434 47.4912 51.6929 47.3411 51.0922C47.3411 48.8395 47.3411 46.4366 47.3411 44.1839C47.3411 43.5832 47.4912 43.433 48.0918 43.433C51.0947 43.433 51.0947 43.2828 51.0947 46.2864C51.0947 51.2423 51.0947 56.0482 51.0947 61.0041C51.0947 61.9052 50.9446 62.0553 50.0437 62.0553C47.3411 62.0553 47.3411 62.0553 47.3411 59.3521C47.3411 59.2019 47.3411 58.6012 47.3411 57.8503Z" fill="black"/>
<path d="M65.8093 57.8501C68.3618 60.7036 70.614 63.2567 73.1664 65.9599C72.4157 65.9599 71.8151 65.9599 71.3647 65.9599C67.4609 65.9599 63.407 65.9599 59.5032 65.9599C58.7525 65.9599 58.4521 65.8097 58.4521 64.9086C58.4521 50.7917 58.4521 36.6748 58.4521 22.4077C58.4521 21.6568 58.6023 21.3564 59.5032 21.3564C72.4157 21.3564 85.4784 21.3564 98.3909 21.3564C99.2918 21.3564 99.442 21.6568 99.442 22.4077C99.442 36.6748 99.442 50.7917 99.442 65.0588C99.442 65.8097 99.2918 66.11 98.3909 66.11C91.9347 66.11 85.6285 66.11 79.1723 66.11C78.5717 66.11 78.1213 65.8097 77.6708 65.3591C73.9172 61.1541 70.1635 57.0993 66.56 52.8942C66.1096 52.4437 65.9594 51.9931 65.9594 51.3924C65.9594 49.1397 65.9594 46.7369 65.9594 44.4842C65.9594 43.8835 65.8093 43.7333 65.2087 43.7333C62.2058 43.7333 62.2058 43.583 62.2058 46.5866C62.2058 51.5426 62.2058 56.3483 62.2058 61.3043C62.2058 62.0552 62.356 62.3555 63.2568 62.3555C65.9595 62.3555 65.9594 62.3556 65.9594 59.6523C65.8093 59.2018 65.8093 58.601 65.8093 57.8501Z" fill="#FEFEFE"/>
<path d="M56.4998 93.8933C43.1368 93.8933 29.924 93.8933 16.561 93.8933C14.459 93.8933 13.8584 93.2926 13.8584 91.1901C13.8584 84.432 13.8584 77.5237 13.8584 70.7656C13.8584 69.8646 14.0085 69.7144 14.9094 69.7144C20.1645 69.7144 25.4196 69.7144 30.5246 69.7144C30.8249 69.7144 31.5756 69.2638 31.2753 70.315C31.1252 70.6154 32.3263 71.2161 32.7768 71.8168C33.5275 72.7179 34.1281 72.7179 34.8788 71.6667C35.9298 69.8645 37.4313 69.5641 39.3832 69.5641C51.2447 69.7143 62.9561 69.7143 74.8176 69.5641C76.1689 69.5641 77.0698 69.8645 77.8205 70.9158C79.322 72.7179 79.4721 72.7179 81.1237 71.0659C81.424 70.7656 82.3249 70.6154 81.8744 69.7144C81.7243 69.414 82.3249 69.5641 82.475 69.5641C85.0275 69.5641 87.4298 69.5641 89.9823 69.5641C92.8351 69.5641 95.6879 69.5641 98.5406 69.5641C99.1412 69.5641 99.2914 69.7143 99.2914 70.315C99.2914 77.3735 99.2914 84.5821 99.2914 91.6406C99.2914 93.1424 98.5406 93.7431 96.889 93.7431C83.3759 93.8933 69.8628 93.8933 56.4998 93.8933Z" fill="#FEFEFE"/>
<path d="M56.4999 17.752C42.6865 17.752 28.8731 17.752 15.0597 17.752C14.1588 17.752 13.7084 17.6019 13.8585 16.5506C14.0087 15.3492 13.8585 13.9976 14.0087 12.7961C14.7594 7.99037 18.5131 4.83661 23.4679 4.83661C37.4314 4.83661 51.5451 4.83661 65.5087 4.83661C73.4664 4.83661 81.4241 4.83661 89.3819 4.83661C95.3877 4.83661 99.2915 8.74125 99.2915 14.7484C99.2915 15.7997 99.5918 17.1514 99.1413 17.6019C98.5408 18.2026 97.1894 17.752 96.1384 17.752C82.9256 17.752 69.7128 17.752 56.4999 17.752Z" fill="#FEFEFE"/>
<path d="M17.6123 103.054C17.6123 101.402 17.6123 99.9005 17.6123 98.2485C17.6123 97.6478 17.7625 97.4976 18.363 97.4976C21.6662 97.4976 24.8193 97.4976 28.1225 97.4976C28.7231 97.4976 28.8732 97.6478 28.8732 98.2485C28.8732 101.552 28.8732 104.706 28.8732 108.01C28.8732 108.611 28.7231 108.761 28.1225 108.761C24.8193 108.761 21.6662 108.761 18.363 108.761C17.7625 108.761 17.6123 108.611 17.6123 108.01C17.6123 106.358 17.6123 104.706 17.6123 103.054Z" fill="#FEFEFE"/>
<path d="M10.105 47.6379C10.105 50.4913 10.105 53.1945 10.105 56.0479C10.105 56.6486 9.95483 56.9491 9.2041 56.9491C7.85279 56.9491 6.50145 56.9491 5.15014 56.9491C4.54956 56.9491 4.39941 56.7989 4.39941 56.1982C4.39941 50.4913 4.39941 44.7845 4.39941 39.0776C4.39941 38.4769 4.54956 38.3267 5.15014 38.3267C6.50145 38.3267 7.85279 38.3267 9.2041 38.3267C9.80468 38.3267 10.105 38.477 10.105 39.2279C10.105 41.9311 10.105 44.7845 10.105 47.6379Z" fill="#FEFEFE"/>
<path d="M103.045 47.4877C103.045 44.6343 103.045 41.931 103.045 39.0776C103.045 38.3267 103.195 38.1766 103.946 38.1766C105.297 38.1766 106.648 38.1766 107.85 38.1766C108.45 38.1766 108.6 38.3268 108.6 38.9275C108.6 44.6343 108.6 50.3411 108.6 56.0479C108.6 56.6486 108.45 56.7988 107.85 56.7988C106.498 56.7988 105.147 56.7988 103.796 56.7988C103.195 56.7988 103.045 56.6486 103.045 56.0479C103.045 53.1945 103.045 50.3412 103.045 47.4877Z" fill="#FEFEFE"/>
<path d="M56.4999 77.2234C62.9562 77.2234 69.4124 77.2234 75.8687 77.2234C76.7696 77.2234 76.9197 77.3736 76.9197 78.2747C76.9197 80.9779 76.9197 80.9779 74.2171 80.9779C61.9051 80.9779 49.5932 80.9779 37.2812 80.9779C36.3804 80.9779 36.0801 80.8277 36.0801 79.7765C36.0801 77.2234 36.0801 77.2234 38.6326 77.2234C44.6384 77.2234 50.6442 77.2234 56.4999 77.2234Z" fill="black"/>
<path d="M56.5001 88.3367C50.0439 88.3367 43.5876 88.3367 37.2815 88.3367C36.3806 88.3367 36.2305 88.1865 36.2305 87.2855C36.2305 84.5822 36.2305 84.5822 38.9331 84.5822C51.245 84.5822 63.557 84.5822 75.8689 84.5822C76.7698 84.5822 77.0701 84.7324 77.0701 85.7837C77.0701 88.3367 77.0701 88.3367 74.5176 88.3367C68.5118 88.3367 62.506 88.3367 56.5001 88.3367Z" fill="black"/>
<path d="M32.4767 82.78C32.4767 86.8349 29.1735 90.1388 25.1196 90.1388C21.0657 90.1388 17.6123 86.8348 17.6123 82.6298C17.6123 78.5749 20.9155 75.1208 25.1196 75.271C29.1735 75.4212 32.4767 78.7252 32.4767 82.78Z" fill="black"/>
<path d="M88.1811 75.2711C92.2351 75.2711 95.5382 78.575 95.5382 82.7801C95.5382 86.8349 92.0849 90.1388 88.031 90.1388C83.977 90.1388 80.6738 86.8349 80.6738 82.7801C80.6738 78.7252 83.977 75.2711 88.1811 75.2711Z" fill="black"/>
<path d="M88.1807 10.2431C88.1807 8.44091 88.1806 8.44098 89.9824 8.44098C91.9343 8.44098 91.9343 8.44096 91.9343 10.3933C91.9343 12.1955 91.9343 12.1955 90.1325 12.1955C88.1806 12.1955 88.1807 12.1954 88.1807 10.2431Z" fill="black"/>
<path d="M64.0068 12.1955C62.2051 12.1955 62.2051 12.1955 62.2051 10.3933C62.2051 8.44096 62.2051 8.44098 64.157 8.44098C65.9587 8.44098 65.9587 8.44091 65.9587 10.2431C65.8086 12.1954 65.8086 12.1955 64.0068 12.1955Z" fill="black"/>
<path d="M58.4521 10.2431C58.4521 12.1954 58.4521 12.1955 56.5002 12.1955C54.8486 12.1955 54.8486 12.1955 54.8486 10.3933C54.8486 8.44096 54.8486 8.44098 56.8005 8.44098C58.4521 8.44098 58.4521 8.44091 58.4521 10.2431Z" fill="black"/>
<path d="M50.9441 10.3933C50.9441 12.1955 50.9441 12.1955 49.1423 12.1955C47.1904 12.1955 47.1904 12.1954 47.1904 10.2431C47.1904 8.44091 47.1904 8.44098 48.9922 8.44098C50.9441 8.44098 50.9441 8.44096 50.9441 10.3933Z" fill="black"/>
<path d="M24.9697 10.3933C24.9697 12.1955 24.9697 12.1955 23.168 12.1955C21.3662 12.1955 21.3662 12.1955 21.3662 10.3933C21.3662 8.59117 21.3662 8.59115 23.168 8.59115C24.9697 8.44097 24.9697 8.44099 24.9697 10.3933Z" fill="black"/>
<path d="M25.1199 86.5345C23.0178 86.5345 21.3662 84.8825 21.3662 82.9302C21.3662 80.8276 23.0178 79.1757 25.1199 79.1757C27.2219 79.1757 28.8735 80.8276 28.8735 82.9302C28.7234 84.7323 27.0718 86.3843 25.1199 86.5345Z" fill="#FEFEFE"/>
<path d="M91.7846 82.7801C91.7846 84.7324 90.133 86.5346 88.031 86.5346C85.9289 86.5346 84.2773 84.8826 84.2773 82.9302C84.2773 80.8277 85.9289 79.1757 88.031 79.1757C90.133 79.0256 91.7846 80.6776 91.7846 82.7801Z" fill="#FEFEFE"/>
</svg>
