<svg width="135" height="112" viewBox="0 0 135 112" fill="none" xmlns="http://www.w3.org/2000/svg">
<path d="M134.059 43.832C133.309 52.5425 130.156 60.3519 124.45 66.9598C122.198 69.663 119.646 72.0659 116.943 74.4688C116.793 74.6189 116.492 74.9193 116.342 75.2197C114.541 78.5236 111.838 80.4759 108.084 80.6261C107.334 80.6261 107.183 81.0767 107.033 81.6774C106.733 86.6333 102.979 90.3878 98.0245 90.8383C97.1236 90.8383 96.8234 91.1388 96.8234 92.0398C96.6732 96.8456 92.6193 100.75 87.8146 101.051C87.214 101.051 86.6134 100.9 86.4633 101.952C86.163 106.157 84.061 109.16 80.1572 110.812C75.9531 112.314 72.3496 111.263 69.3467 108.259C67.8452 106.757 66.3438 105.256 64.8423 103.754C63.1907 105.256 61.8394 106.908 60.1878 108.109C57.1848 110.512 53.8817 110.962 50.2782 109.461C46.6747 107.959 44.5726 105.105 44.2723 101.201C44.2723 100.3 43.9721 99.8491 43.0712 99.8491C38.4167 99.6989 34.3627 95.6441 34.0625 90.9886C34.0625 90.2377 33.9123 89.6369 32.8613 89.6369C28.2068 89.4867 24.1528 85.7323 23.8526 80.7763C23.7024 79.7251 23.4021 79.4247 22.3511 79.4247C18.2972 79.2745 14.5435 75.9705 13.7928 72.0658C13.6426 71.0146 13.042 70.2637 12.2913 69.5128C5.6849 62.9049 1.63093 54.9454 0.429759 45.4841C-0.471115 38.8762 0.730069 33.6198 0.730069 33.6198C4.48371 16.4993 14.6936 5.386 31.6601 1.33114C44.2723 -1.67246 55.9837 1.33118 66.0435 9.44089C66.9444 10.1918 67.3948 10.1918 68.2957 9.44089C80.9079 -0.92152 98.7752 -2.72372 113.039 5.08564C114.691 5.98672 115.141 7.33834 114.541 8.84014C113.79 10.1918 112.288 10.6423 110.637 9.74118C106.883 7.78884 102.829 6.43726 98.4749 5.83654C89.1659 4.6351 80.6076 6.88778 72.9501 12.2943C71.4487 13.3455 70.0975 14.5469 68.8963 15.7484C63.0406 21.6054 57.0347 27.4625 51.179 33.4697C49.077 35.5722 48.6266 38.2754 49.8278 40.8284C51.6295 44.2826 56.1338 45.1837 58.9866 42.6306C60.6382 41.1288 62.44 39.627 63.7913 37.8248C66.4939 34.3707 69.7972 33.0191 74.1514 33.6198C76.2534 33.9202 78.5056 33.77 80.7577 33.6198C84.061 33.3195 86.7636 31.8176 89.166 29.5649C90.5173 28.2133 91.8685 26.8617 93.2198 25.5101C93.5201 25.2097 93.8205 24.9093 94.1208 24.7592C95.3219 23.8581 96.6732 24.0083 97.5741 24.9094C98.475 25.8105 98.6251 27.3123 97.7242 28.3635C94.8714 31.2169 92.319 34.3708 88.8657 36.4733C87.6645 37.074 87.8146 37.5245 88.7155 38.2754C96.3729 45.7844 103.88 53.4436 111.388 60.9526C113.339 62.9049 115.592 64.707 116.793 67.5604C123.099 61.8536 127.153 54.9454 128.504 46.6855C129.855 38.726 128.654 31.217 124.901 24.1585C124.6 23.5578 124.15 22.8069 124.3 22.056C124.45 20.8545 125.051 19.9535 126.252 19.6531C127.453 19.3527 128.504 19.8032 129.255 21.0047C131.657 25.2097 133.159 29.7151 133.909 34.3707C133.759 34.2205 134.51 37.5245 134.059 43.832Z" fill="black"/>
<path d="M120.846 11.093C122.198 11.093 123.399 12.2944 123.399 13.646C123.399 15.1478 122.198 16.3493 120.696 16.1991C119.345 16.1991 118.144 14.9976 118.294 13.4958C118.294 12.2944 119.495 11.093 120.846 11.093Z" fill="black"/>
<path d="M14.8442 64.4068C10.7903 60.0516 7.93746 54.9455 6.43601 49.2387C3.73338 37.9752 5.83542 27.6128 13.1926 18.4518C18.8981 11.3933 26.2552 7.03807 35.4141 5.83663C45.4739 4.33483 54.6328 6.88793 62.5906 13.1955C63.3413 13.7962 63.3413 14.0966 62.5906 14.6973C57.6357 19.6532 52.6809 24.6091 47.7261 29.565C44.2727 33.0192 43.2218 36.9238 44.5731 41.5794C46.8253 48.6379 56.1343 51.4913 61.9899 46.8357C64.6926 44.583 66.9448 42.03 69.4972 39.477C70.0978 38.8762 70.6984 38.7261 71.5993 38.7261C74.9025 38.7261 78.0556 38.8762 81.3588 38.5758C81.8092 38.5758 82.1095 38.726 82.5599 39.0263C92.0191 48.4877 101.328 57.7989 110.787 67.2602C112.739 69.2126 112.739 72.0659 110.938 73.8681C108.986 75.8204 106.283 75.6703 104.181 73.718C97.4244 66.9599 90.6678 60.2017 83.9113 53.5938C83.4608 53.1433 83.1605 52.8429 82.5599 52.5425C81.5089 51.7916 80.1576 52.0921 79.4069 52.9932C78.6562 53.8942 78.506 55.0956 79.1066 56.1469C79.4069 56.5974 79.7072 56.8978 80.1576 57.3483C86.764 63.9562 93.3704 70.5641 100.127 77.3222C101.028 78.2233 101.779 79.2746 101.929 80.6262C102.079 82.5785 101.328 84.3808 99.6766 85.2818C98.025 86.1829 96.0731 86.0327 94.5716 84.8312C94.1212 84.5309 93.8209 84.0804 93.3704 83.78C86.764 77.1721 80.1576 70.5642 73.5512 63.9563C72.6503 63.0552 71.7495 62.3043 70.3982 62.7548C68.7466 63.2054 67.9958 65.1577 68.8967 66.6595C69.197 67.11 69.6474 67.5606 69.9476 67.8609C76.5541 74.4688 83.1605 81.0768 89.7669 87.6847C90.6678 88.5858 91.4185 89.4868 91.5687 90.8384C91.869 92.9409 90.9681 94.7431 89.1664 95.6442C87.3646 96.5453 85.4127 96.3951 83.9113 94.8933C81.6591 92.7908 79.4069 90.3879 77.1547 88.2854C74.6022 85.7324 72.0497 83.1793 69.3471 80.6262C67.9958 79.2746 66.3442 79.2746 65.2932 80.3258C64.2421 81.5273 64.2422 82.8789 65.5935 84.2306C70.248 88.8861 74.7524 93.3915 79.4069 98.0471C80.7582 99.3987 81.6591 100.901 81.0585 103.003C80.1576 106.307 76.404 107.659 73.8515 105.406C71.8996 103.754 70.0978 101.802 68.2961 99.8492C67.8456 99.3987 67.9958 99.0983 68.146 98.6478C69.9477 93.0911 65.8938 86.6334 59.5876 86.1829C58.8369 86.1829 58.3864 86.1829 58.2363 85.1316C57.7859 79.8753 54.4827 76.5714 49.2275 75.9707C48.3267 75.8205 48.0264 75.6703 48.0264 74.7692C47.576 69.8133 43.9725 66.0588 39.0177 65.7584C37.9666 65.6083 37.8165 65.3079 37.8165 64.4068C37.5162 60.5021 35.5643 57.7988 31.9608 56.297C28.5074 54.7952 25.2042 55.0957 22.2013 57.4986C19.3485 59.3007 16.9463 61.8537 14.8442 64.4068Z" fill="#FEFEFE"/>
<path d="M54.0314 105.106C52.2296 104.955 50.7281 104.204 49.9774 102.402C49.2267 100.75 49.3769 98.9482 50.578 97.5965C52.2296 95.7944 54.0314 93.9922 55.8331 92.3402C57.4847 90.8384 60.0372 90.9887 61.839 92.4905C63.4906 93.9923 63.941 96.6955 62.4395 98.4977C60.7879 100.6 58.8361 102.402 56.8842 104.204C55.9833 104.805 55.0824 105.106 54.0314 105.106Z" fill="#FEFEFE"/>
<path d="M52.9803 85.7323C52.8302 86.9338 52.68 87.8349 51.9293 88.7359C50.2777 90.5381 48.6261 92.3402 46.6742 93.842C44.8725 95.494 42.1699 95.1937 40.5183 93.5417C38.8667 91.8897 38.7165 89.1864 40.218 87.3843C41.8696 85.5821 43.5212 83.78 45.3229 82.2782C46.6743 81.0768 48.476 80.9266 50.1276 81.6775C52.0795 82.4284 52.8302 83.9302 52.9803 85.7323Z" fill="#FEFEFE"/>
<path d="M33.4622 84.5309C31.6604 84.5309 30.3091 83.6298 29.4082 81.9779C28.5073 80.3259 28.6576 78.6739 29.8587 77.1721C31.5103 75.2197 33.312 73.4176 35.2639 71.7656C37.0657 70.2638 39.7683 70.5642 41.2698 72.2162C42.9214 73.8681 43.0715 76.5713 41.5701 78.3735C39.9185 80.1757 38.1167 81.8276 36.4651 83.6298C35.7143 84.2305 34.6633 84.5309 33.4622 84.5309Z" fill="#FEFEFE"/>
<path d="M32.4106 64.7071C32.4106 66.5093 31.9602 67.5605 30.9092 68.6118C29.5579 69.9634 28.0564 71.4652 26.7051 72.8168C24.7532 74.7691 21.9005 74.7692 20.0987 72.967C18.297 71.1649 18.297 68.3114 20.2489 66.3591C21.7503 64.8573 23.2517 63.2053 24.9033 61.7035C26.4048 60.3519 28.0565 60.2017 29.8582 60.9526C31.5098 61.8537 32.4106 63.3555 32.4106 64.7071Z" fill="#FEFEFE"/>
<path d="M63.1906 75.3699C63.1906 76.7215 61.9896 77.923 60.6382 77.923C59.2869 77.923 57.9355 76.7216 57.9355 75.2198C57.9355 73.8681 59.1367 72.6667 60.488 72.6667C61.9895 72.8169 63.1906 74.0183 63.1906 75.3699Z" fill="black"/>
</svg>
