<svg width="48" height="48" viewBox="0 0 48 48" fill="none" xmlns="http://www.w3.org/2000/svg">
<path d="M47.0784 25.5681C46.9282 26.6194 46.7781 27.6706 46.6279 28.7219C46.0274 31.4251 44.9763 34.1284 43.3247 36.5313C39.4209 42.2381 34.1659 45.6922 27.4093 46.8937C22.1542 47.6446 19.0011 46.7435 19.0011 46.7435C14.9472 45.9926 11.3437 44.1904 8.34078 41.4872C5.18771 38.784 2.93557 35.48 1.43411 31.5753C0.833525 30.0735 0.53316 28.4215 0.232868 26.9197C-0.367715 23.6158 0.383069 19.7111 0.383069 19.7111C1.1338 15.3559 2.93551 11.4512 5.78828 8.14726C9.54192 3.79204 14.1964 1.23898 19.7518 0.187724C20.3524 0.0375445 21.1032 0.0375454 21.7038 0.0375454C21.7038 0.0375454 25.4574 -0.112635 27.4093 0.187724C31.7635 0.938624 35.6673 2.74078 38.9705 5.5942C43.0245 9.19852 45.727 13.7039 46.7781 18.9602C46.9282 19.8613 46.9282 20.7624 47.0784 21.6634C47.0784 21.6634 47.2285 23.4656 47.0784 25.5681Z" fill="#51C8FC"/>
<path d="M16.5988 24.8172C11.3437 27.0699 7.59007 30.8244 5.63817 36.2309C0.533217 29.623 -0.818095 17.6086 7.13963 8.74799C14.9472 0.0375584 28.4604 -1.0137 37.4691 6.49529C46.7781 14.3046 47.679 27.2201 41.3729 36.2309C39.421 30.8244 35.6673 27.0699 30.4122 24.8172C32.9647 22.2642 34.1659 19.2606 33.7155 15.8064C33.4152 13.2534 32.0638 11.0007 30.1119 9.34871C25.9078 6.04475 20.0522 6.34511 16.4487 10.0996C12.5449 14.0043 12.0944 20.462 16.5988 24.8172Z" fill="#FEFEFE"/>
<path d="M23.505 45.5421C17.0487 45.3919 11.4934 42.989 7.13914 38.1832C6.98899 38.0331 6.83879 37.8829 6.98894 37.5825C8.79069 32.0259 12.3942 28.2714 17.7995 26.1688C18.0997 26.0187 18.2499 26.1688 18.5502 26.1688C21.8534 27.971 25.1566 27.971 28.4599 26.1688C28.7601 26.0187 28.9103 26.0187 29.2106 26.1688C34.6158 28.2714 38.2193 32.0259 40.021 37.4323C40.1712 37.7327 40.021 37.8829 39.8709 38.1832C36.1173 42.2381 31.6129 44.641 26.0575 45.3919C25.1566 45.5421 24.4058 45.5421 23.505 45.5421Z" fill="#FEFEFE"/>
<path d="M23.5055 25.8685C18.7008 25.8685 14.9473 21.9638 14.9473 17.3082C14.9473 12.6527 18.851 8.74799 23.6557 8.74799C28.3102 8.74799 32.214 12.6527 32.214 17.3082C32.0639 21.9638 28.3102 25.8685 23.5055 25.8685Z" fill="#FEFEFE"/>
</svg>
