<svg width="276" height="34" viewBox="0 0 276 34" fill="none" xmlns="http://www.w3.org/2000/svg">
<path d="M67.7158 4.81051C152.698 1.50655 201.946 -0.295608 275.367 7.06321Z" fill="#51C8FC"/>
<path d="M17.1162 8.7152C93.9908 7.81412 135.431 3.60912 247.44 13.0705Z" fill="#51C8FC"/>
<path d="M45.1943 12.0193C117.114 9.91676 192.637 12.4697 258.101 25.3851Z" fill="#51C8FC"/>
<path d="M16.0654 12.0193C109.756 6.76304 188.283 6.76293 248.491 20.7297Z" fill="#51C8FC"/>
<path d="M0 10.2169C69.5175 6.31221 158.104 1.35631 222.666 8.56495Z" fill="#51C8FC"/>
<path d="M89.4873 16.074C149.996 15.3231 212.757 19.2277 265.158 33.3446Z" fill="#51C8FC"/>
<path d="M11.4111 9.61615C59.7581 3.15841 110.657 -0.145402 161.407 0.0047784C173.118 0.0047784 185.88 0.304991 194.739 3.60895" fill="#51C8FC"/>
</svg>
